 <svg
        xmlns="http://www.w3.org/2000/svg"
        width="74"
        height="46"
        viewBox="0 0 74 46"
        fill="none"
      >
        <g filter="url(#filter0_d_584_176)">
          <mask
            id="path-1-outside-1_584_176"
            maskUnits="userSpaceOnUse"
            x="4.1315"
            y="3.42352"
            width="66"
            height="38"
            fill="black"
          >
            <rect fill="white" x="4.1315" y="3.42352" width="66" height="38" />
            <path
              fill-rule="evenodd"
              clip-rule="evenodd"
              d="M9.1315 4.42352H65.1315C67.3406 4.42352 69.1315 6.21438 69.1315 8.42352V30.4235C69.1315 32.6327 67.3406 34.4235 65.1315 34.4235L44.1315 34.4235L37.3918 40.2004C37.242 40.3288 37.021 40.3288 36.8712 40.2004L30.1315 34.4235H9.1315C6.92236 34.4235 5.1315 32.6327 5.1315 30.4235V8.42352C5.1315 6.21438 6.92236 4.42352 9.1315 4.42352Z"
            />
          </mask>
          <path
            fill-rule="evenodd"
            clip-rule="evenodd"
            d="M9.1315 4.42352H65.1315C67.3406 4.42352 69.1315 6.21438 69.1315 8.42352V30.4235C69.1315 32.6327 67.3406 34.4235 65.1315 34.4235L44.1315 34.4235L37.3918 40.2004C37.242 40.3288 37.021 40.3288 36.8712 40.2004L30.1315 34.4235H9.1315C6.92236 34.4235 5.1315 32.6327 5.1315 30.4235V8.42352C5.1315 6.21438 6.92236 4.42352 9.1315 4.42352Z"
            fill="white"
          />
          <path
            d="M65.1315 34.4235L65.1315 34.9235H65.1315V34.4235ZM44.1315 34.4235L44.1315 33.9235L43.9465 33.9235L43.8061 34.0439L44.1315 34.4235ZM37.3918 40.2004L37.0664 39.8208L37.0664 39.8208L37.3918 40.2004ZM36.8712 40.2004L37.1966 39.8208L37.1966 39.8208L36.8712 40.2004ZM30.1315 34.4235L30.4569 34.0439L30.3165 33.9235H30.1315V34.4235ZM65.1315 3.92352H9.1315V4.92352H65.1315V3.92352ZM69.6315 8.42352C69.6315 5.93824 67.6168 3.92352 65.1315 3.92352V4.92352C67.0645 4.92352 68.6315 6.49053 68.6315 8.42352H69.6315ZM69.6315 30.4235V8.42352H68.6315V30.4235H69.6315ZM65.1315 34.9235C67.6168 34.9235 69.6315 32.9088 69.6315 30.4235H68.6315C68.6315 32.3565 67.0645 33.9235 65.1315 33.9235V34.9235ZM44.1315 34.9235L65.1315 34.9235L65.1315 33.9235L44.1315 33.9235L44.1315 34.9235ZM43.8061 34.0439L37.0664 39.8208L37.7172 40.58L44.4569 34.8032L43.8061 34.0439ZM37.0664 39.8208C37.1039 39.7887 37.1591 39.7887 37.1966 39.8208L36.5458 40.58C36.8828 40.8689 37.3802 40.8689 37.7172 40.58L37.0664 39.8208ZM37.1966 39.8208L30.4569 34.0439L29.8061 34.8032L36.5458 40.58L37.1966 39.8208ZM9.1315 34.9235H30.1315V33.9235H9.1315V34.9235ZM4.6315 30.4235C4.6315 32.9088 6.64622 34.9235 9.1315 34.9235V33.9235C7.1985 33.9235 5.6315 32.3565 5.6315 30.4235H4.6315ZM4.6315 8.42352V30.4235H5.6315V8.42352H4.6315ZM9.1315 3.92352C6.64622 3.92352 4.6315 5.93824 4.6315 8.42352H5.6315C5.6315 6.49053 7.1985 4.92352 9.1315 4.92352V3.92352Z"
            fill="#DFE0EB"
            mask="url(#path-1-outside-1_584_176)"
          />
        </g>
        <defs>
          <filter
            id="filter0_d_584_176"
            x="0.6315"
            y="0.923523"
            width="73"
            height="44.8732"
            filterUnits="userSpaceOnUse"
            color-interpolation-filters="sRGB"
          >
            <feFlood flood-opacity="0" result="BackgroundImageFix" />
            <feColorMatrix
              in="SourceAlpha"
              type="matrix"
              values="0 0 0 0 0 0 0 0 0 0 0 0 0 0 0 0 0 0 127 0"
              result="hardAlpha"
            />
            <feOffset dy="1" />
            <feGaussianBlur stdDeviation="2" />
            <feColorMatrix
              type="matrix"
              values="0 0 0 0 0 0 0 0 0 0 0 0 0 0 0 0 0 0 0.08 0"
            />
            <feBlend
              mode="normal"
              in2="BackgroundImageFix"
              result="effect1_dropShadow_584_176"
            />
            <feBlend
              mode="normal"
              in="SourceGraphic"
              in2="effect1_dropShadow_584_176"
              result="shape"
            />
          </filter>
        </defs>
      </svg>